<svg version="1.1" id="Layer_1" xmlns="http://www.w3.org/2000/svg" xmlns:xlink="http://www.w3.org/1999/xlink" x="0px" y="0px"
	 width="100%" viewBox="0 0 500 500" enable-background="new 0 0 500 500" xml:space="preserve">
<path fill="#000000" opacity="1.000000" stroke="none" 
	d="
M1.000000,177.000000 
	C1.000000,118.014610 1.000000,59.529213 1.000000,1.043820 
	C1.152019,1.029213 1.304037,1.001804 1.456056,1.001802 
	C167.914474,0.999988 334.372894,1.000000 501.000000,1.000000 
	C501.000000,84.256233 501.000000,167.512573 501.000000,250.768921 
	C501.000000,334.081451 501.000000,417.393951 501.000000,500.853241 
	C334.333435,500.853241 167.666733,500.853241 1.000000,500.853241 
	C1.000000,393.112305 1.000000,285.306152 1.000000,177.000000 
M344.909393,47.634197 
	C299.820740,27.135107 252.996460,21.644655 204.497925,31.817480 
	C156.123123,41.964355 115.609322,65.878044 82.796150,102.727386 
	C19.419867,173.899231 8.591000,278.272003 55.778233,361.431183 
	C103.393379,445.344482 198.825638,489.683411 293.098877,470.892242 
	C362.835297,456.991852 414.689575,417.948975 448.712311,355.751587 
	C467.633209,321.161987 475.441559,283.762634 474.392029,244.209091 
	C473.444000,208.478821 464.551544,175.114868 447.535767,143.943192 
	C424.051514,100.921799 389.765533,69.121658 344.909393,47.634197 
z"/>
<path fill="#A78841" opacity="1.000000" stroke="none" 
	d="
M345.252686,47.787060 
	C389.765533,69.121658 424.051514,100.921799 447.535767,143.943192 
	C464.551544,175.114868 473.444000,208.478821 474.392029,244.209091 
	C475.441559,283.762634 467.633209,321.161987 448.712311,355.751587 
	C414.689575,417.948975 362.835297,456.991852 293.098877,470.892242 
	C198.825638,489.683411 103.393379,445.344482 55.778233,361.431183 
	C8.591000,278.272003 19.419867,173.899231 82.796150,102.727386 
	C115.609322,65.878044 156.123123,41.964355 204.497925,31.817480 
	C252.996460,21.644655 299.820740,27.135107 345.252686,47.787060 
M353.255005,444.756927 
	C369.813232,435.953613 385.239227,425.434998 398.759827,412.472351 
	C452.214508,361.223785 476.058868,298.762543 468.008636,224.895493 
	C462.946106,178.442795 444.483582,137.409058 412.490967,103.474907 
	C361.042328,48.904022 297.507629,25.182894 222.675949,33.991364 
	C172.918045,39.848392 129.976883,61.099186 95.286209,96.870789 
	C39.933456,153.948288 20.444269,222.624069 37.436375,300.089905 
	C58.416950,395.738953 141.480011,464.658783 239.268387,469.767670 
	C279.203522,471.854034 316.978882,463.246490 353.255005,444.756927 
z"/>
<path fill="#070605" opacity="1.000000" stroke="none" 
	d="
M352.917419,444.908447 
	C316.978882,463.246490 279.203522,471.854034 239.268387,469.767670 
	C141.480011,464.658783 58.416950,395.738953 37.436375,300.089905 
	C20.444269,222.624069 39.933456,153.948288 95.286209,96.870789 
	C129.976883,61.099186 172.918045,39.848392 222.675949,33.991364 
	C297.507629,25.182894 361.042328,48.904022 412.490967,103.474907 
	C444.483582,137.409058 462.946106,178.442795 468.008636,224.895493 
	C476.058868,298.762543 452.214508,361.223785 398.759827,412.472351 
	C385.239227,425.434998 369.813232,435.953613 352.917419,444.908447 
M449.443970,324.943726 
	C489.319153,215.214966 436.249817,94.964638 326.162048,52.950264 
	C215.210205,10.606096 92.591141,66.551208 51.677856,178.175034 
	C11.584085,287.562988 66.373993,407.883820 176.245392,449.534546 
	C285.444855,490.930542 407.569794,435.345123 449.443970,324.943726 
z"/>
<path fill="#F6F6F6" opacity="1.000000" stroke="none" 
	d="
M449.293182,325.305023 
	C407.569794,435.345123 285.444855,490.930542 176.245392,449.534546 
	C66.373993,407.883820 11.584085,287.562988 51.677856,178.175034 
	C92.591141,66.551208 215.210205,10.606096 326.162048,52.950264 
	C436.249817,94.964638 489.319153,215.214966 449.293182,325.305023 
M46.211227,266.047607 
	C48.215233,292.905640 55.030891,318.496582 67.256805,342.481812 
	C107.683487,421.792114 188.821960,464.882324 277.447632,454.117126 
	C320.979248,448.829407 358.944489,430.886017 390.487854,400.712311 
	C440.241394,353.119141 461.849884,294.546265 453.951172,225.993637 
	C447.681824,171.582001 422.526093,126.717400 380.230957,92.206902 
	C334.761841,55.106613 282.206940,40.682419 223.958527,47.907738 
	C183.595230,52.914532 147.648453,68.646408 117.161644,95.542870 
	C66.233170,140.473663 42.883602,197.310760 46.211227,266.047607 
z"/>
<path fill="#020202" opacity="1.000000" stroke="none" 
	d="
M46.181328,265.581787 
	C42.883602,197.310760 66.233170,140.473663 117.161644,95.542870 
	C147.648453,68.646408 183.595230,52.914532 223.958527,47.907738 
	C282.206940,40.682419 334.761841,55.106613 380.230957,92.206902 
	C422.526093,126.717400 447.681824,171.582001 453.951172,225.993637 
	C461.849884,294.546265 440.241394,353.119141 390.487854,400.712311 
	C358.944489,430.886017 320.979248,448.829407 277.447632,454.117126 
	C188.821960,464.882324 107.683487,421.792114 67.256805,342.481812 
	C55.030891,318.496582 48.215233,292.905640 46.181328,265.581787 
M326.051727,145.438965 
	C292.371399,121.909218 255.376923,115.037430 215.893402,125.673958 
	C151.943863,142.901413 111.567856,205.021301 122.030182,270.574982 
	C129.904190,319.910950 157.988800,354.734070 204.602829,372.328491 
	C252.126144,390.266113 296.754364,381.810333 335.303497,348.910767 
	C398.802673,294.717682 394.138153,195.401703 326.051727,145.438965 
M113.047310,347.571442 
	C109.688850,349.983856 106.330391,352.396240 102.925003,354.842346 
	C100.366798,352.892029 100.757355,351.626495 103.127434,349.980682 
	C109.501770,345.554321 115.712318,340.892059 122.251274,336.131744 
	C121.095482,334.704651 120.206696,333.607208 119.093292,332.232452 
	C112.315140,337.140930 105.726173,341.881775 99.171089,346.669037 
	C93.977852,350.461700 94.115685,354.193665 99.345512,358.082886 
	C100.440620,358.897278 101.375847,360.257996 101.818741,361.559540 
	C103.543823,366.629120 107.094551,368.893097 110.631569,366.468719 
	C118.011963,361.409882 125.165550,356.020203 132.600250,350.630188 
	C131.506653,349.151733 130.643204,347.984436 129.611038,346.589020 
	C123.117546,351.283630 116.738670,355.749939 110.538177,360.451447 
	C108.136787,362.272369 106.901863,362.027649 106.036942,358.937897 
	C113.098770,353.791473 120.160713,348.644958 127.420982,343.353912 
	C126.238144,341.865356 125.351715,340.749847 124.327957,339.461487 
	C120.614235,342.115326 117.111069,344.618683 113.047310,347.571442 
M301.049591,81.945175 
	C299.278320,76.711517 294.417084,77.751007 290.609711,77.245026 
	C289.470917,77.093674 287.171844,79.392479 286.781677,80.920441 
	C284.455353,90.030807 282.532349,99.244171 280.406281,108.724930 
	C282.295349,109.222595 283.800232,109.619049 284.964233,109.925705 
	C288.176788,106.029037 285.212891,99.303108 292.426788,97.160843 
	C291.445221,102.239563 290.614716,106.536751 289.760925,110.954346 
	C291.634125,111.368340 293.047150,111.680626 294.897675,112.089607 
	C297.001617,102.142471 299.049561,92.460007 301.049591,81.945175 
M188.939011,82.666039 
	C185.861374,83.691116 182.783752,84.716187 179.379257,85.850136 
	C183.056900,96.750969 186.536652,107.065262 190.099716,117.626457 
	C192.052063,116.909698 193.547989,116.360504 194.960129,115.842072 
	C193.772064,111.829994 192.690277,108.176788 191.608490,104.523575 
	C194.670822,106.386086 196.991592,108.523079 198.844910,111.008629 
	C201.375031,114.401840 203.745865,113.754547 206.629822,111.514099 
	C203.041458,107.589592 199.682983,103.916512 196.458267,100.389717 
	C197.119171,98.671997 198.378799,97.071037 198.096237,95.817772 
	C197.261902,92.117241 196.143875,88.390396 194.450836,85.018295 
	C193.775925,83.674072 191.302673,83.232758 188.939011,82.666039 
M376.037933,145.203491 
	C373.442291,147.976120 370.846619,150.748749 368.126831,153.654022 
	C369.304718,154.987030 370.361450,156.182953 371.663483,157.656464 
	C378.629639,150.264069 385.222504,143.470917 391.569275,136.455124 
	C395.274170,132.359680 391.519989,129.968552 388.992249,127.386513 
	C386.499207,124.839844 383.813660,123.420349 380.862366,126.480873 
	C374.284637,133.301971 367.831421,140.243118 361.117615,147.357712 
	C362.571289,148.618195 363.768066,149.655930 364.756378,150.512909 
	C367.322571,148.072601 369.560272,145.855652 371.896881,143.748398 
	C374.097717,141.763611 374.914368,141.967758 376.037933,145.203491 
M223.629440,79.204483 
	C219.420715,70.831032 213.490341,80.204361 208.124191,76.248917 
	C210.293579,88.544037 212.187210,99.276253 214.121414,110.238441 
	C215.953705,109.982521 217.367996,109.784988 219.286987,109.516960 
	C217.697342,100.035851 216.153290,90.826523 214.609222,81.617203 
	C215.170593,81.284798 215.731964,80.952393 216.293335,80.619987 
	C217.196136,81.737198 218.659637,82.741623 218.910751,83.989937 
	C220.543137,92.104553 221.912048,100.272163 223.420944,108.723480 
	C225.247650,108.363800 226.791916,108.059738 228.583344,107.707001 
	C226.965134,98.260750 225.399063,89.118866 223.629440,79.204483 
M122.955048,148.010956 
	C123.975464,145.326797 124.995872,142.642654 126.093941,139.754211 
	C133.463104,146.761826 133.463104,146.761826 130.245880,149.406403 
	C129.130066,148.479889 128.010162,147.549988 126.856773,146.592270 
	C124.283615,149.994888 124.242363,153.019852 128.164017,154.766098 
	C132.657425,156.766937 134.627121,152.528671 137.229599,150.253052 
	C139.505844,148.262680 139.373581,145.828690 137.379227,143.650879 
	C133.132111,139.013092 128.803467,134.449936 124.059761,129.376541 
	C122.770821,132.770416 121.694099,135.605484 120.609200,138.462097 
	C118.471046,136.569717 116.542175,134.862564 114.613312,133.155411 
	C114.683792,132.667465 114.754272,132.179520 114.824753,131.691589 
	C116.569794,131.471146 118.314827,131.250702 121.219139,130.883820 
	C120.779335,129.169769 120.906723,126.126244 119.620827,125.310471 
	C115.567307,122.738914 113.115135,126.570976 111.066727,129.057526 
	C109.830093,130.558655 109.017677,134.229416 109.939476,135.370941 
	C113.768341,140.112427 118.329117,144.262878 122.955048,148.010956 
M208.401306,409.817566 
	C206.890106,416.745361 205.378906,423.673157 203.822861,430.806488 
	C205.586700,431.223389 206.976593,431.551910 208.601974,431.936096 
	C209.523483,428.150452 210.389313,424.593536 211.431320,420.312836 
	C217.199982,433.847198 217.199982,433.847198 220.068344,433.606537 
	C219.173172,429.055786 218.280853,424.519501 217.397034,420.026489 
	C220.663803,418.214081 224.504959,409.379059 223.115295,405.413208 
	C221.042831,399.498810 214.938660,402.102661 210.737000,399.512360 
	C209.930359,403.229218 209.301498,406.126892 208.401306,409.817566 
M294.060852,406.431366 
	C296.575073,414.115021 299.089294,421.798706 301.731445,429.873322 
	C303.385345,429.307892 304.796692,428.825378 305.742615,428.501953 
	C306.942413,423.652130 300.361084,419.569672 305.973633,414.695709 
	C307.528412,419.142456 308.917603,423.115540 310.361328,427.244690 
	C312.094971,426.572510 313.447418,426.048126 314.930176,425.473236 
	C312.259796,417.243591 309.534546,409.262726 307.102875,401.193390 
	C305.654144,396.385803 302.823456,396.195831 298.676270,397.519745 
	C294.393250,398.887024 291.648224,400.667328 294.060852,406.431366 
M387.414520,377.231720 
	C385.529114,375.146820 383.464050,373.191986 381.825378,370.928467 
	C380.835419,369.560974 380.507324,367.714325 379.881805,366.082977 
	C380.342743,365.872742 380.803711,365.662506 381.264648,365.452301 
	C384.330597,368.137146 387.396545,370.821991 390.555115,373.587921 
	C391.851685,372.498077 392.946320,371.577972 394.398376,370.357422 
	C387.169067,363.866699 380.593811,357.792603 373.818939,351.949982 
	C370.245361,348.868134 367.866699,351.551910 365.528564,354.175323 
	C363.254974,356.726349 361.322510,359.242157 364.610443,362.263611 
	C370.611786,367.778595 376.782715,373.111237 382.713440,378.699707 
	C384.842987,380.706360 385.789917,379.369202 387.414520,377.231720 
M240.817978,418.101288 
	C240.378296,424.182953 239.938614,430.264618 239.481689,436.584778 
	C241.511581,436.584778 242.901779,436.584778 244.536530,436.584778 
	C245.151855,427.523254 245.954285,418.733917 246.160660,409.930573 
	C246.198700,408.308838 244.114655,405.686493 242.496735,405.186218 
	C239.636017,404.301666 236.380844,404.692841 232.832977,404.528961 
	C232.092728,414.946655 231.356689,425.304993 230.611572,435.791016 
	C232.659927,435.791016 234.050949,435.791016 235.678558,435.791016 
	C236.195679,428.062378 236.693100,420.609406 237.193756,413.156708 
	C237.348297,410.856262 237.469971,408.503662 240.873596,410.278442 
	C240.873596,412.573792 240.873596,414.874146 240.817978,418.101288 
M150.742340,374.171906 
	C147.468613,378.602203 144.194870,383.032501 140.683243,387.784729 
	C144.151230,388.429260 146.874481,388.935394 150.312653,389.574371 
	C148.197433,392.400238 146.378708,394.829987 144.559982,397.259735 
	C143.990616,397.154480 143.421249,397.049255 142.851883,396.944031 
	C142.935272,395.075958 143.018661,393.207886 143.114273,391.065918 
	C140.099731,389.638824 136.391998,390.370300 136.557358,394.480774 
	C136.661789,397.077057 140.092575,399.985321 142.689514,401.824219 
	C143.784668,402.599670 147.320572,401.633484 148.458252,400.332184 
	C152.267654,395.975281 155.495392,391.109802 159.241516,386.038788 
	C155.990875,385.363403 153.132339,384.769440 149.698837,384.056061 
	C151.469681,381.695862 152.922943,379.758942 155.338898,376.538910 
	C156.093857,379.384583 156.533630,381.042206 156.990829,382.765533 
	C161.448959,383.387695 163.583954,382.005127 162.732544,378.782349 
	C161.739990,375.025299 154.829239,371.927887 150.742340,374.171906 
M318.319305,84.349113 
	C317.740906,84.484795 316.766266,84.463715 316.641571,84.778885 
	C312.658813,94.846359 308.758331,104.946388 304.782379,115.204262 
	C306.736359,115.939774 308.090546,116.449524 309.678070,117.047089 
	C310.234894,115.685173 310.898041,114.522316 311.188293,113.272850 
	C312.365387,108.205986 314.886139,105.063301 320.681610,105.771393 
	C324.333649,106.217606 325.165924,103.456184 326.198517,100.697418 
	C330.610748,88.909409 330.668945,88.931190 318.319305,84.349113 
M265.374695,100.959381 
	C264.188202,101.264862 263.001740,101.570335 261.355164,101.994263 
	C261.963409,93.594009 262.502625,86.147408 263.041840,78.700813 
	C263.529388,78.456543 264.016968,78.212280 264.504517,77.968010 
	C265.667603,79.626503 266.830719,81.285004 268.033264,82.999779 
	C271.940186,82.676910 273.345825,80.079010 271.955048,76.542206 
	C270.207245,72.097504 265.694153,73.322945 262.331116,73.394905 
	C260.786865,73.427948 258.182983,75.938690 257.974243,77.570732 
	C256.961609,85.488365 256.433136,93.483070 256.144775,101.465332 
	C256.087555,103.049568 257.430817,105.446213 258.815460,106.191422 
	C265.507904,109.793251 270.733154,106.660843 270.987610,99.221207 
	C271.021301,98.236137 270.992218,97.248932 270.992218,96.262711 
	C270.654968,95.982361 270.317749,95.702019 269.980499,95.421669 
	C268.498688,96.992050 267.016846,98.562424 265.374695,100.959381 
M92.200645,155.980621 
	C99.809669,162.110626 107.418686,168.240631 115.212341,174.519379 
	C118.050110,170.967346 120.592300,167.785294 123.247742,164.461487 
	C121.715927,163.328186 120.561897,162.474396 119.271576,161.519760 
	C117.579338,163.463043 116.075798,165.189636 114.628517,166.851608 
	C110.196892,164.446960 106.998405,161.793350 108.916191,155.929245 
	C109.410820,154.416840 107.271889,152.043167 106.342743,150.065125 
	C105.926476,150.207214 105.510216,150.349304 105.093956,150.491394 
	C104.487183,152.794907 103.880402,155.098434 103.111191,158.018616 
	C100.627434,155.985413 98.620552,154.342575 96.499535,152.606308 
	C97.996384,150.529282 99.339485,148.665604 100.856804,146.560181 
	C99.468491,145.563782 98.223640,144.670364 97.019798,143.806366 
	C90.550285,151.125549 90.550285,151.125549 92.200645,155.980621 
M330.977966,396.438507 
	C325.488190,385.548523 324.078033,385.230988 313.566071,392.708679 
	C318.093933,401.878021 322.639404,411.082977 327.356934,420.636444 
	C328.938721,419.819000 330.290466,419.120453 331.707855,418.387970 
	C331.225342,417.250580 331.042236,416.383575 330.557404,415.745972 
	C327.044098,411.125488 327.286194,407.003174 331.401764,402.696320 
	C332.304688,401.751404 331.350861,399.032135 330.977966,396.438507 
M170.107391,117.396606 
	C168.017975,114.515778 167.719193,111.780144 170.602310,109.158905 
	C173.522827,106.503685 172.233673,104.055695 170.028748,101.279060 
	C168.371231,103.316757 166.886627,105.141899 165.079102,107.364014 
	C163.695114,104.529182 162.550751,102.185181 161.321579,99.667480 
	C163.490417,98.437332 165.441177,97.330887 167.663406,96.070450 
	C166.921631,94.538040 166.297073,93.247803 165.549164,91.702759 
	C162.999481,92.961182 160.252716,93.707748 158.411621,95.425194 
	C157.027710,96.716171 155.638489,99.781929 156.257431,101.150368 
	C160.258240,109.995804 164.810165,118.591980 169.250015,127.406158 
	C173.258575,125.354958 176.780487,123.552788 180.629379,121.583298 
	C179.739944,120.021240 178.982697,118.691330 178.600769,118.020561 
	C175.320724,116.932854 173.221298,122.807892 170.107391,117.396606 
M278.789551,402.773743 
	C275.344025,403.417633 270.479919,402.788544 271.085724,408.266754 
	C271.942993,416.018829 273.477325,423.706573 274.975677,431.372284 
	C275.617310,434.655060 278.151825,435.299286 281.171417,434.561981 
	C284.421417,433.768402 288.700653,434.265686 288.575775,429.105774 
	C288.525635,427.034973 287.863464,424.979004 287.234039,421.594482 
	C285.369232,423.760773 284.148224,425.080719 283.046082,426.493439 
	C282.286346,427.467255 281.691162,428.569458 281.022430,429.614258 
	C280.370605,428.446655 279.364777,427.346466 279.127289,426.099915 
	C278.011383,420.243225 277.106537,414.346344 276.126312,408.463806 
	C276.439331,408.115631 276.752319,407.767456 277.065338,407.419281 
	C278.536316,408.578766 280.007294,409.738251 282.223175,411.484894 
	C282.942871,410.168030 285.085083,407.922638 284.606079,406.729889 
	C283.899475,404.970367 281.326843,403.960205 278.789551,402.773743 
M187.130829,420.290375 
	C187.573441,415.594879 189.174423,412.313477 194.789764,412.052094 
	C196.420547,411.976196 197.938370,409.473083 199.507965,408.082581 
	C199.220108,407.720154 198.932251,407.357697 198.644409,406.995239 
	C196.453476,406.995239 194.262543,406.995239 191.629990,406.995239 
	C192.707687,404.319427 193.595734,402.114471 194.477142,399.925995 
	C196.926407,400.721436 198.899673,401.362274 200.872940,402.003113 
	C201.328278,401.670685 201.783615,401.338257 202.238937,401.005829 
	C201.511047,399.583679 201.120407,397.370728 199.991333,396.889221 
	C196.744568,395.504517 192.466705,392.137451 190.102722,397.369629 
	C186.373337,405.623840 183.537613,414.281830 180.187393,423.128632 
	C184.193375,424.630890 187.706314,425.948242 191.475784,427.361816 
	C192.063965,425.726776 192.537521,424.410400 193.079010,422.905182 
	C191.071945,422.128998 189.385376,421.476746 187.130829,420.290375 
M137.781876,374.579590 
	C138.413361,373.871338 139.044846,373.163055 139.847137,372.263245 
	C137.475693,371.337341 135.306442,370.490387 133.058273,369.612610 
	C135.049561,367.440613 136.706604,365.633209 138.402313,363.783600 
	C140.258575,365.447052 141.845016,366.868713 143.599411,368.440857 
	C144.714417,367.305450 145.677185,366.325043 147.330338,364.641632 
	C145.245895,362.927521 143.411118,361.507538 141.678741,359.972015 
	C139.419556,357.969604 137.211761,357.979950 135.064041,360.022491 
	C128.576385,366.192566 122.122284,372.397980 116.474670,377.804962 
	C119.605820,381.644348 122.058342,384.651611 124.687782,387.875824 
	C126.120888,386.536865 127.058609,385.660767 128.118973,384.670044 
	C126.321465,382.744293 124.857018,381.175385 123.392448,379.603943 
	C126.027313,375.194916 129.202103,372.451233 134.611298,375.597900 
	C135.186844,375.932709 136.347641,375.261475 137.781876,374.579590 
M360.220947,113.551895 
	C355.260651,120.737366 350.300385,127.922836 345.244446,135.246826 
	C346.978790,136.401886 348.182129,137.203293 349.600098,138.147659 
	C355.041473,130.390396 360.355896,122.814156 365.744110,115.132698 
	C367.386230,116.023880 368.784576,116.782753 370.414764,117.667465 
	C371.330902,116.259460 372.117279,115.050850 373.017334,113.667526 
	C368.648132,110.620644 364.480560,107.714348 360.074554,104.641785 
	C359.028870,106.153542 358.216614,107.327881 357.695984,108.080566 
	C358.822510,109.917847 359.757965,111.443542 360.220947,113.551895 
M145.446472,119.008102 
	C143.797943,116.575981 142.149414,114.143860 140.531647,111.757111 
	C142.053329,110.495667 143.194122,109.549988 144.588776,108.393852 
	C143.546188,107.070183 142.594635,105.862083 141.572159,104.563942 
	C137.122925,107.666641 133.057053,110.501991 128.685013,113.550865 
	C129.784958,114.978493 130.720200,116.192360 131.714844,117.483315 
	C133.269806,116.514572 134.491638,115.753380 135.989655,114.820107 
	C141.420822,122.604767 146.713364,130.190765 152.207275,138.065369 
	C153.732559,136.943939 154.974304,136.030960 156.465118,134.934891 
	C152.825012,129.648453 149.358429,124.613998 145.446472,119.008102 
M405.643097,150.967453 
	C406.569244,150.100418 407.495392,149.233398 408.535645,148.259537 
	C407.418457,146.903381 406.492249,145.779053 405.332489,144.371246 
	C396.548523,151.388397 387.909729,158.289520 379.171631,165.270020 
	C382.033142,168.832077 384.613800,172.044510 387.391693,175.502487 
	C388.806427,174.240082 389.953705,173.216354 391.105225,172.188843 
	C389.501434,170.030838 388.151062,168.213852 386.645111,166.187485 
	C392.927734,161.143112 398.991974,156.274109 405.643097,150.967453 
M358.362671,368.556671 
	C357.547791,367.278717 356.732910,366.000763 355.777191,364.501923 
	C351.585938,368.023132 347.943604,371.083221 344.184631,374.241241 
	C345.469116,375.681885 346.340057,376.658722 347.215118,377.640137 
	C348.674255,376.721130 349.991302,375.891632 351.353729,375.033508 
	C357.124451,381.918762 362.667419,388.532288 368.408234,395.381836 
	C369.770050,394.131195 370.915100,393.079620 372.120605,391.972565 
	C366.288574,384.953308 360.712341,378.241974 355.133240,371.527161 
	C356.317230,370.466553 357.059662,369.801483 358.362671,368.556671 
M168.191437,398.637970 
	C165.591339,403.562073 162.991241,408.486176 160.295578,413.591278 
	C162.062119,414.403625 163.329666,414.986542 164.760010,415.644287 
	C169.071960,407.729065 173.183289,400.182129 177.324844,392.579651 
	C179.025742,393.146484 180.500488,393.637939 182.065338,394.159454 
	C182.809662,392.778229 183.409760,391.664642 184.138397,390.312561 
	C179.688965,387.915894 175.514679,385.667419 171.054703,383.265076 
	C170.203445,384.781067 169.512131,386.012177 168.801865,387.277100 
	C170.272278,388.250854 171.476700,389.048462 172.849442,389.957520 
	C171.362747,392.788177 169.989639,395.402618 168.191437,398.637970 
M398.065521,350.578613 
	C391.655090,346.249084 385.244659,341.919525 378.751160,337.533905 
	C377.647095,339.229492 376.884247,340.401031 375.984222,341.783264 
	C384.946136,347.821869 393.542847,353.614410 402.269135,359.494263 
	C404.720459,355.873138 406.852539,352.723633 409.120453,349.373474 
	C407.870270,348.482300 406.695007,347.644531 405.910217,347.085083 
	C402.541687,347.278351 403.656128,354.229706 398.065521,350.578613 
M343.583771,95.711205 
	C338.279388,105.353737 332.974976,114.996262 327.504272,124.941147 
	C329.576965,125.878036 330.993164,126.518188 332.541809,127.218185 
	C337.841156,117.236633 342.943115,107.626915 348.151245,97.817162 
	C346.642395,97.036430 345.492737,96.441559 343.583771,95.711205 
M344.700226,389.772064 
	C342.330383,386.182922 339.960510,382.593781 337.384796,378.692841 
	C335.931641,379.746979 334.693390,380.645233 333.319855,381.641632 
	C339.154663,390.586182 344.773193,399.199127 350.513947,407.999451 
	C351.953461,407.013000 353.143951,406.197205 354.651184,405.164337 
	C351.366760,400.106354 348.214020,395.251221 344.700226,389.772064 
z"/>
<path fill="#F3F3F3" opacity="1.000000" stroke="none" 
	d="
M326.338928,145.655792 
	C394.138153,195.401703 398.802673,294.717682 335.303497,348.910767 
	C296.754364,381.810333 252.126144,390.266113 204.602829,372.328491 
	C157.988800,354.734070 129.904190,319.910950 122.030182,270.574982 
	C111.567856,205.021301 151.943863,142.901413 215.893402,125.673958 
	C255.376923,115.037430 292.371399,121.909218 326.338928,145.655792 
M328.570587,153.916183 
	C310.014801,139.325485 289.268341,129.520462 265.679779,127.084267 
	C217.079147,122.064873 177.974274,139.641464 148.764008,178.547760 
	C118.068588,219.432144 117.361626,280.432770 147.411255,321.611481 
	C177.689972,363.104095 218.819366,381.896423 269.860596,373.762573 
	C320.450897,365.700562 354.783142,335.603821 369.348846,286.960754 
	C384.890747,235.057678 369.869324,190.259567 328.570587,153.916183 
z"/>
<path fill="#F3F3F3" opacity="1.000000" stroke="none" 
	d="
M113.327606,347.346741 
	C117.111069,344.618683 120.614235,342.115326 124.327957,339.461487 
	C125.351715,340.749847 126.238144,341.865356 127.420982,343.353912 
	C120.160713,348.644958 113.098770,353.791473 106.036942,358.937897 
	C106.901863,362.027649 108.136787,362.272369 110.538177,360.451447 
	C116.738670,355.749939 123.117546,351.283630 129.611038,346.589020 
	C130.643204,347.984436 131.506653,349.151733 132.600250,350.630188 
	C125.165550,356.020203 118.011963,361.409882 110.631569,366.468719 
	C107.094551,368.893097 103.543823,366.629120 101.818741,361.559540 
	C101.375847,360.257996 100.440620,358.897278 99.345512,358.082886 
	C94.115685,354.193665 93.977852,350.461700 99.171089,346.669037 
	C105.726173,341.881775 112.315140,337.140930 119.093292,332.232452 
	C120.206696,333.607208 121.095482,334.704651 122.251274,336.131744 
	C115.712318,340.892059 109.501770,345.554321 103.127434,349.980682 
	C100.757355,351.626495 100.366798,352.892029 102.925003,354.842346 
	C106.330391,352.396240 109.688850,349.983856 113.327606,347.346741 
z"/>
<path fill="#F3F3F3" opacity="1.000000" stroke="none" 
	d="
M301.073547,82.361359 
	C299.049561,92.460007 297.001617,102.142471 294.897675,112.089607 
	C293.047150,111.680626 291.634125,111.368340 289.760925,110.954346 
	C290.614716,106.536751 291.445221,102.239563 292.426788,97.160843 
	C285.212891,99.303108 288.176788,106.029037 284.964233,109.925705 
	C283.800232,109.619049 282.295349,109.222595 280.406281,108.724930 
	C282.532349,99.244171 284.455353,90.030807 286.781677,80.920441 
	C287.171844,79.392479 289.470917,77.093674 290.609711,77.245026 
	C294.417084,77.751007 299.278320,76.711517 301.073547,82.361359 
M291.134064,84.623688 
	C290.688354,86.984093 290.242615,89.344490 289.732941,92.043678 
	C296.468353,91.812180 294.067413,86.397514 296.419067,82.245041 
	C293.979797,82.991211 292.663696,83.393822 291.134064,84.623688 
z"/>
<path fill="#F3F3F3" opacity="1.000000" stroke="none" 
	d="
M189.293549,82.523224 
	C191.302673,83.232758 193.775925,83.674072 194.450836,85.018295 
	C196.143875,88.390396 197.261902,92.117241 198.096237,95.817772 
	C198.378799,97.071037 197.119171,98.671997 196.458267,100.389717 
	C199.682983,103.916512 203.041458,107.589592 206.629822,111.514099 
	C203.745865,113.754547 201.375031,114.401840 198.844910,111.008629 
	C196.991592,108.523079 194.670822,106.386086 191.608490,104.523575 
	C192.690277,108.176788 193.772064,111.829994 194.960129,115.842072 
	C193.547989,116.360504 192.052063,116.909698 190.099716,117.626457 
	C186.536652,107.065262 183.056900,96.750969 179.379257,85.850136 
	C182.783752,84.716187 185.861374,83.691116 189.293549,82.523224 
M191.555496,96.854378 
	C191.211029,93.824074 190.866562,90.793762 190.464828,87.259682 
	C188.297607,88.215492 187.279663,88.664429 186.100754,89.184364 
	C187.090485,92.057953 187.941681,94.706543 188.977386,97.280899 
	C189.089249,97.558937 190.270844,97.406593 191.555496,96.854378 
z"/>
<path fill="#F4F4F4" opacity="1.000000" stroke="none" 
	d="
M376.314423,144.936951 
	C374.914368,141.967758 374.097717,141.763611 371.896881,143.748398 
	C369.560272,145.855652 367.322571,148.072601 364.756378,150.512909 
	C363.768066,149.655930 362.571289,148.618195 361.117615,147.357712 
	C367.831421,140.243118 374.284637,133.301971 380.862366,126.480873 
	C383.813660,123.420349 386.499207,124.839844 388.992249,127.386513 
	C391.519989,129.968552 395.274170,132.359680 391.569275,136.455124 
	C385.222504,143.470917 378.629639,150.264069 371.663483,157.656464 
	C370.361450,156.182953 369.304718,154.987030 368.126831,153.654022 
	C370.846619,150.748749 373.442291,147.976120 376.314423,144.936951 
M384.644165,136.121216 
	C386.428772,134.217026 388.987946,132.259781 384.038635,130.726547 
	C382.009491,132.905884 379.905273,135.165878 377.796143,137.431152 
	C380.370270,139.555176 382.411652,139.175110 384.644165,136.121216 
z"/>
<path fill="#F3F3F3" opacity="1.000000" stroke="none" 
	d="
M223.731216,79.590736 
	C225.399063,89.118866 226.965134,98.260750 228.583344,107.707001 
	C226.791916,108.059738 225.247650,108.363800 223.420944,108.723480 
	C221.912048,100.272163 220.543137,92.104553 218.910751,83.989937 
	C218.659637,82.741623 217.196136,81.737198 216.293335,80.619987 
	C215.731964,80.952393 215.170593,81.284798 214.609222,81.617203 
	C216.153290,90.826523 217.697342,100.035851 219.286987,109.516960 
	C217.367996,109.784988 215.953705,109.982521 214.121414,110.238441 
	C212.187210,99.276253 210.293579,88.544037 208.124191,76.248917 
	C213.490341,80.204361 219.420715,70.831032 223.731216,79.590736 
z"/>
<path fill="#F2F2F2" opacity="1.000000" stroke="none" 
	d="
M122.788162,148.320602 
	C118.329117,144.262878 113.768341,140.112427 109.939476,135.370941 
	C109.017677,134.229416 109.830093,130.558655 111.066727,129.057526 
	C113.115135,126.570976 115.567307,122.738914 119.620827,125.310471 
	C120.906723,126.126244 120.779335,129.169769 121.219139,130.883820 
	C118.314827,131.250702 116.569794,131.471146 114.824753,131.691589 
	C114.754272,132.179520 114.683792,132.667465 114.613312,133.155411 
	C116.542175,134.862564 118.471046,136.569717 120.609200,138.462097 
	C121.694099,135.605484 122.770821,132.770416 124.059761,129.376541 
	C128.803467,134.449936 133.132111,139.013092 137.379227,143.650879 
	C139.373581,145.828690 139.505844,148.262680 137.229599,150.253052 
	C134.627121,152.528671 132.657425,156.766937 128.164017,154.766098 
	C124.242363,153.019852 124.283615,149.994888 126.856773,146.592270 
	C128.010162,147.549988 129.130066,148.479889 130.245880,149.406403 
	C133.463104,146.761826 133.463104,146.761826 126.093941,139.754211 
	C124.995872,142.642654 123.975464,145.326797 122.788162,148.320602 
z"/>
<path fill="#F4F4F4" opacity="1.000000" stroke="none" 
	d="
M208.536972,409.421082 
	C209.301498,406.126892 209.930359,403.229218 210.737000,399.512360 
	C214.938660,402.102661 221.042831,399.498810 223.115295,405.413208 
	C224.504959,409.379059 220.663803,418.214081 217.397034,420.026489 
	C218.280853,424.519501 219.173172,429.055786 220.068344,433.606537 
	C217.199982,433.847198 217.199982,433.847198 211.431320,420.312836 
	C210.389313,424.593536 209.523483,428.150452 208.601974,431.936096 
	C206.976593,431.551910 205.586700,431.223389 203.822861,430.806488 
	C205.378906,423.673157 206.890106,416.745361 208.536972,409.421082 
M217.195709,406.242706 
	C210.689697,406.848267 214.811508,412.169250 212.874069,414.812500 
	C218.508148,414.283630 217.301422,410.055084 217.195709,406.242706 
z"/>
<path fill="#F4F4F4" opacity="1.000000" stroke="none" 
	d="
M293.978394,406.039948 
	C291.648224,400.667328 294.393250,398.887024 298.676270,397.519745 
	C302.823456,396.195831 305.654144,396.385803 307.102875,401.193390 
	C309.534546,409.262726 312.259796,417.243591 314.930176,425.473236 
	C313.447418,426.048126 312.094971,426.572510 310.361328,427.244690 
	C308.917603,423.115540 307.528412,419.142456 305.973633,414.695709 
	C300.361084,419.569672 306.942413,423.652130 305.742615,428.501953 
	C304.796692,428.825378 303.385345,429.307892 301.731445,429.873322 
	C299.089294,421.798706 296.575073,414.115021 293.978394,406.039948 
M304.064392,408.260406 
	C303.690948,407.006989 303.554443,405.601349 302.875275,404.544403 
	C302.237457,403.551788 301.026245,402.927643 300.067322,402.141388 
	C299.743347,403.337402 298.984985,404.614197 299.189117,405.712036 
	C299.571838,407.770691 300.511536,409.725769 301.375549,412.164032 
	C302.423645,410.928101 303.226776,409.981049 304.064392,408.260406 
z"/>
<path fill="#F4F4F4" opacity="1.000000" stroke="none" 
	d="
M387.196289,377.563965 
	C385.789917,379.369202 384.842987,380.706360 382.713440,378.699707 
	C376.782715,373.111237 370.611786,367.778595 364.610443,362.263611 
	C361.322510,359.242157 363.254974,356.726349 365.528564,354.175323 
	C367.866699,351.551910 370.245361,348.868134 373.818939,351.949982 
	C380.593811,357.792603 387.169067,363.866699 394.398376,370.357422 
	C392.946320,371.577972 391.851685,372.498077 390.555115,373.587921 
	C387.396545,370.821991 384.330597,368.137146 381.264648,365.452301 
	C380.803711,365.662506 380.342743,365.872742 379.881805,366.082977 
	C380.507324,367.714325 380.835419,369.560974 381.825378,370.928467 
	C383.464050,373.191986 385.529114,375.146820 387.196289,377.563965 
M372.871246,357.694153 
	C370.715668,355.168915 369.462067,356.398407 368.250732,358.943390 
	C370.610046,360.959656 372.924805,362.937836 375.239594,364.916046 
	C375.747742,364.504730 376.255920,364.093445 376.764069,363.682129 
	C375.661133,361.847748 374.558228,360.013367 372.871246,357.694153 
z"/>
<path fill="#F1F1F1" opacity="1.000000" stroke="none" 
	d="
M240.845795,417.637878 
	C240.873596,414.874146 240.873596,412.573792 240.873596,410.278442 
	C237.469971,408.503662 237.348297,410.856262 237.193756,413.156708 
	C236.693100,420.609406 236.195679,428.062378 235.678558,435.791016 
	C234.050949,435.791016 232.659927,435.791016 230.611572,435.791016 
	C231.356689,425.304993 232.092728,414.946655 232.832977,404.528961 
	C236.380844,404.692841 239.636017,404.301666 242.496735,405.186218 
	C244.114655,405.686493 246.198700,408.308838 246.160660,409.930573 
	C245.954285,418.733917 245.151855,427.523254 244.536530,436.584778 
	C242.901779,436.584778 241.511581,436.584778 239.481689,436.584778 
	C239.938614,430.264618 240.378296,424.182953 240.845795,417.637878 
z"/>
<path fill="#F1F1F1" opacity="1.000000" stroke="none" 
	d="
M150.970963,373.892578 
	C154.829239,371.927887 161.739990,375.025299 162.732544,378.782349 
	C163.583954,382.005127 161.448959,383.387695 156.990829,382.765533 
	C156.533630,381.042206 156.093857,379.384583 155.338898,376.538910 
	C152.922943,379.758942 151.469681,381.695862 149.698837,384.056061 
	C153.132339,384.769440 155.990875,385.363403 159.241516,386.038788 
	C155.495392,391.109802 152.267654,395.975281 148.458252,400.332184 
	C147.320572,401.633484 143.784668,402.599670 142.689514,401.824219 
	C140.092575,399.985321 136.661789,397.077057 136.557358,394.480774 
	C136.391998,390.370300 140.099731,389.638824 143.114273,391.065918 
	C143.018661,393.207886 142.935272,395.075958 142.851883,396.944031 
	C143.421249,397.049255 143.990616,397.154480 144.559982,397.259735 
	C146.378708,394.829987 148.197433,392.400238 150.312653,389.574371 
	C146.874481,388.935394 144.151230,388.429260 140.683243,387.784729 
	C144.194870,383.032501 147.468613,378.602203 150.970963,373.892578 
z"/>
<path fill="#F4F4F4" opacity="1.000000" stroke="none" 
	d="
M318.654785,84.530441 
	C330.668945,88.931190 330.610748,88.909409 326.198517,100.697418 
	C325.165924,103.456184 324.333649,106.217606 320.681610,105.771393 
	C314.886139,105.063301 312.365387,108.205986 311.188293,113.272850 
	C310.898041,114.522316 310.234894,115.685173 309.678070,117.047089 
	C308.090546,116.449524 306.736359,115.939774 304.782379,115.204262 
	C308.758331,104.946388 312.658813,94.846359 316.641571,84.778885 
	C316.766266,84.463715 317.740906,84.484795 318.654785,84.530441 
M323.589172,92.528969 
	C321.354462,90.133232 319.785980,90.249344 318.770142,93.625877 
	C318.078430,95.925003 317.084381,98.133179 316.144379,100.594543 
	C322.359650,101.391724 321.655090,96.270126 323.589172,92.528969 
z"/>
<path fill="#F1F1F1" opacity="1.000000" stroke="none" 
	d="
M265.454865,100.546097 
	C267.016846,98.562424 268.498688,96.992050 269.980499,95.421669 
	C270.317749,95.702019 270.654968,95.982361 270.992218,96.262711 
	C270.992218,97.248932 271.021301,98.236137 270.987610,99.221207 
	C270.733154,106.660843 265.507904,109.793251 258.815460,106.191422 
	C257.430817,105.446213 256.087555,103.049568 256.144775,101.465332 
	C256.433136,93.483070 256.961609,85.488365 257.974243,77.570732 
	C258.182983,75.938690 260.786865,73.427948 262.331116,73.394905 
	C265.694153,73.322945 270.207245,72.097504 271.955048,76.542206 
	C273.345825,80.079010 271.940186,82.676910 268.033264,82.999779 
	C266.830719,81.285004 265.667603,79.626503 264.504517,77.968010 
	C264.016968,78.212280 263.529388,78.456543 263.041840,78.700813 
	C262.502625,86.147408 261.963409,93.594009 261.355164,101.994263 
	C263.001740,101.570335 264.188202,101.264862 265.454865,100.546097 
z"/>
<path fill="#F3F3F3" opacity="1.000000" stroke="none" 
	d="
M91.971817,155.680115 
	C90.550285,151.125549 90.550285,151.125549 97.019798,143.806366 
	C98.223640,144.670364 99.468491,145.563782 100.856804,146.560181 
	C99.339485,148.665604 97.996384,150.529282 96.499535,152.606308 
	C98.620552,154.342575 100.627434,155.985413 103.111191,158.018616 
	C103.880402,155.098434 104.487183,152.794907 105.093956,150.491394 
	C105.510216,150.349304 105.926476,150.207214 106.342743,150.065125 
	C107.271889,152.043167 109.410820,154.416840 108.916191,155.929245 
	C106.998405,161.793350 110.196892,164.446960 114.628517,166.851608 
	C116.075798,165.189636 117.579338,163.463043 119.271576,161.519760 
	C120.561897,162.474396 121.715927,163.328186 123.247742,164.461487 
	C120.592300,167.785294 118.050110,170.967346 115.212341,174.519379 
	C107.418686,168.240631 99.809669,162.110626 91.971817,155.680115 
z"/>
<path fill="#F3F3F3" opacity="1.000000" stroke="none" 
	d="
M331.115051,396.784241 
	C331.350861,399.032135 332.304688,401.751404 331.401764,402.696320 
	C327.286194,407.003174 327.044098,411.125488 330.557404,415.745972 
	C331.042236,416.383575 331.225342,417.250580 331.707855,418.387970 
	C330.290466,419.120453 328.938721,419.819000 327.356934,420.636444 
	C322.639404,411.082977 318.093933,401.878021 313.566071,392.708679 
	C324.078033,385.230988 325.488190,385.548523 331.115051,396.784241 
M322.042725,393.274750 
	C321.656738,394.234253 320.719086,395.398560 320.985382,396.115906 
	C321.882904,398.533539 323.208435,400.792297 324.589050,403.548676 
	C328.656830,398.788361 325.296661,396.003174 322.042725,393.274750 
z"/>
<path fill="#F4F4F4" opacity="1.000000" stroke="none" 
	d="
M170.281067,117.724823 
	C173.221298,122.807892 175.320724,116.932854 178.600769,118.020561 
	C178.982697,118.691330 179.739944,120.021240 180.629379,121.583298 
	C176.780487,123.552788 173.258575,125.354958 169.250015,127.406158 
	C164.810165,118.591980 160.258240,109.995804 156.257431,101.150368 
	C155.638489,99.781929 157.027710,96.716171 158.411621,95.425194 
	C160.252716,93.707748 162.999481,92.961182 165.549164,91.702759 
	C166.297073,93.247803 166.921631,94.538040 167.663406,96.070450 
	C165.441177,97.330887 163.490417,98.437332 161.321579,99.667480 
	C162.550751,102.185181 163.695114,104.529182 165.079102,107.364014 
	C166.886627,105.141899 168.371231,103.316757 170.028748,101.279060 
	C172.233673,104.055695 173.522827,106.503685 170.602310,109.158905 
	C167.719193,111.780144 168.017975,114.515778 170.281067,117.724823 
z"/>
<path fill="#F0F0F0" opacity="1.000000" stroke="none" 
	d="
M279.169250,402.702332 
	C281.326843,403.960205 283.899475,404.970367 284.606079,406.729889 
	C285.085083,407.922638 282.942871,410.168030 282.223175,411.484894 
	C280.007294,409.738251 278.536316,408.578766 277.065338,407.419281 
	C276.752319,407.767456 276.439331,408.115631 276.126312,408.463806 
	C277.106537,414.346344 278.011383,420.243225 279.127289,426.099915 
	C279.364777,427.346466 280.370605,428.446655 281.022430,429.614258 
	C281.691162,428.569458 282.286346,427.467255 283.046082,426.493439 
	C284.148224,425.080719 285.369232,423.760773 287.234039,421.594482 
	C287.863464,424.979004 288.525635,427.034973 288.575775,429.105774 
	C288.700653,434.265686 284.421417,433.768402 281.171417,434.561981 
	C278.151825,435.299286 275.617310,434.655060 274.975677,431.372284 
	C273.477325,423.706573 271.942993,416.018829 271.085724,408.266754 
	C270.479919,402.788544 275.344025,403.417633 279.169250,402.702332 
z"/>
<path fill="#F1F1F1" opacity="1.000000" stroke="none" 
	d="
M187.414825,420.557434 
	C189.385376,421.476746 191.071945,422.128998 193.079010,422.905182 
	C192.537521,424.410400 192.063965,425.726776 191.475784,427.361816 
	C187.706314,425.948242 184.193375,424.630890 180.187393,423.128632 
	C183.537613,414.281830 186.373337,405.623840 190.102722,397.369629 
	C192.466705,392.137451 196.744568,395.504517 199.991333,396.889221 
	C201.120407,397.370728 201.511047,399.583679 202.238937,401.005829 
	C201.783615,401.338257 201.328278,401.670685 200.872940,402.003113 
	C198.899673,401.362274 196.926407,400.721436 194.477142,399.925995 
	C193.595734,402.114471 192.707687,404.319427 191.629990,406.995239 
	C194.262543,406.995239 196.453476,406.995239 198.644409,406.995239 
	C198.932251,407.357697 199.220108,407.720154 199.507965,408.082581 
	C197.938370,409.473083 196.420547,411.976196 194.789764,412.052094 
	C189.174423,412.313477 187.573441,415.594879 187.414825,420.557434 
z"/>
<path fill="#F2F2F2" opacity="1.000000" stroke="none" 
	d="
M137.509399,374.818298 
	C136.347641,375.261475 135.186844,375.932709 134.611298,375.597900 
	C129.202103,372.451233 126.027313,375.194916 123.392517,379.605225 
	C124.857018,381.175385 126.321465,382.744293 128.118973,384.670044 
	C127.058609,385.660767 126.120888,386.536865 124.687782,387.875824 
	C122.058342,384.651611 119.605820,381.644348 116.474670,377.804962 
	C122.122284,372.397980 128.576385,366.192566 135.064041,360.022491 
	C137.211761,357.979950 139.419556,357.969604 141.678741,359.972015 
	C143.411118,361.507538 145.245895,362.927521 147.330338,364.641632 
	C145.677185,366.325043 144.714417,367.305450 143.599411,368.440857 
	C141.845016,366.868713 140.258575,365.447052 138.402313,363.783600 
	C136.706604,365.633209 135.049561,367.440613 133.058273,369.612610 
	C135.306442,370.490387 137.475693,371.337341 139.847137,372.263245 
	C139.044846,373.163055 138.413361,373.871338 137.509399,374.818298 
z"/>
<path fill="#F2F2F2" opacity="1.000000" stroke="none" 
	d="
M360.457214,113.260567 
	C359.757965,111.443542 358.822510,109.917847 357.695984,108.080566 
	C358.216614,107.327881 359.028870,106.153542 360.074554,104.641785 
	C364.480560,107.714348 368.648132,110.620644 373.017334,113.667526 
	C372.117279,115.050850 371.330902,116.259460 370.414764,117.667465 
	C368.784576,116.782753 367.386230,116.023880 365.744110,115.132698 
	C360.355896,122.814156 355.041473,130.390396 349.600098,138.147659 
	C348.182129,137.203293 346.978790,136.401886 345.244446,135.246826 
	C350.300385,127.922836 355.260651,120.737366 360.457214,113.260567 
z"/>
<path fill="#F3F3F3" opacity="1.000000" stroke="none" 
	d="
M145.669159,119.293823 
	C149.358429,124.613998 152.825012,129.648453 156.465118,134.934891 
	C154.974304,136.030960 153.732559,136.943939 152.207275,138.065369 
	C146.713364,130.190765 141.420822,122.604767 135.989655,114.820107 
	C134.491638,115.753380 133.269806,116.514572 131.714844,117.483315 
	C130.720200,116.192360 129.784958,114.978493 128.685013,113.550865 
	C133.057053,110.501991 137.122925,107.666641 141.572159,104.563942 
	C142.594635,105.862083 143.546188,107.070183 144.588776,108.393852 
	C143.194122,109.549988 142.053329,110.495667 140.531647,111.757111 
	C142.149414,114.143860 143.797943,116.575981 145.669159,119.293823 
z"/>
<path fill="#F3F3F3" opacity="1.000000" stroke="none" 
	d="
M405.349670,151.186279 
	C398.991974,156.274109 392.927734,161.143112 386.645111,166.187485 
	C388.151062,168.213852 389.501434,170.030838 391.105225,172.188843 
	C389.953705,173.216354 388.806427,174.240082 387.391693,175.502487 
	C384.613800,172.044510 382.033142,168.832077 379.171631,165.270020 
	C387.909729,158.289520 396.548523,151.388397 405.332489,144.371246 
	C406.492249,145.779053 407.418457,146.903381 408.535645,148.259537 
	C407.495392,149.233398 406.569244,150.100418 405.349670,151.186279 
z"/>
<path fill="#F0F0F0" opacity="1.000000" stroke="none" 
	d="
M358.082397,368.846558 
	C357.059662,369.801483 356.317230,370.466553 355.133240,371.527161 
	C360.712341,378.241974 366.288574,384.953308 372.120605,391.972565 
	C370.915100,393.079620 369.770050,394.131195 368.408234,395.381836 
	C362.667419,388.532288 357.124451,381.918762 351.353729,375.033508 
	C349.991302,375.891632 348.674255,376.721130 347.215118,377.640137 
	C346.340057,376.658722 345.469116,375.681885 344.184631,374.241241 
	C347.943604,371.083221 351.585938,368.023132 355.777191,364.501923 
	C356.732910,366.000763 357.547791,367.278717 358.082397,368.846558 
z"/>
<path fill="#F2F2F2" opacity="1.000000" stroke="none" 
	d="
M168.403976,398.327515 
	C169.989639,395.402618 171.362747,392.788177 172.849442,389.957520 
	C171.476700,389.048462 170.272278,388.250854 168.801865,387.277100 
	C169.512131,386.012177 170.203445,384.781067 171.054703,383.265076 
	C175.514679,385.667419 179.688965,387.915894 184.138397,390.312561 
	C183.409760,391.664642 182.809662,392.778229 182.065338,394.159454 
	C180.500488,393.637939 179.025742,393.146484 177.324844,392.579651 
	C173.183289,400.182129 169.071960,407.729065 164.760010,415.644287 
	C163.329666,414.986542 162.062119,414.403625 160.295578,413.591278 
	C162.991241,408.486176 165.591339,403.562073 168.403976,398.327515 
z"/>
<path fill="#F1F1F1" opacity="1.000000" stroke="none" 
	d="
M398.378357,350.777588 
	C403.656128,354.229706 402.541687,347.278351 405.910217,347.085083 
	C406.695007,347.644531 407.870270,348.482300 409.120453,349.373474 
	C406.852539,352.723633 404.720459,355.873138 402.269135,359.494263 
	C393.542847,353.614410 384.946136,347.821869 375.984222,341.783264 
	C376.884247,340.401031 377.647095,339.229492 378.751160,337.533905 
	C385.244659,341.919525 391.655090,346.249084 398.378357,350.777588 
z"/>
<path fill="#F2F2F2" opacity="1.000000" stroke="none" 
	d="
M343.963440,95.778946 
	C345.492737,96.441559 346.642395,97.036430 348.151245,97.817162 
	C342.943115,107.626915 337.841156,117.236633 332.541809,127.218185 
	C330.993164,126.518188 329.576965,125.878036 327.504272,124.941147 
	C332.974976,114.996262 338.279388,105.353737 343.963440,95.778946 
z"/>
<path fill="#F1F1F1" opacity="1.000000" stroke="none" 
	d="
M344.880768,390.084045 
	C348.214020,395.251221 351.366760,400.106354 354.651184,405.164337 
	C353.143951,406.197205 351.953461,407.013000 350.513947,407.999451 
	C344.773193,399.199127 339.154663,390.586182 333.319855,381.641632 
	C334.693390,380.645233 335.931641,379.746979 337.384796,378.692841 
	C339.960510,382.593781 342.330383,386.182922 344.880768,390.084045 
z"/>
<path fill="#090909" opacity="1.000000" stroke="none" 
	d="
M328.867310,154.112228 
	C369.869324,190.259567 384.890747,235.057678 369.348846,286.960754 
	C354.783142,335.603821 320.450897,365.700562 269.860596,373.762573 
	C218.819366,381.896423 177.689972,363.104095 147.411255,321.611481 
	C117.361626,280.432770 118.068588,219.432144 148.764008,178.547760 
	C177.974274,139.641464 217.079147,122.064873 265.679779,127.084267 
	C289.268341,129.520462 310.014801,139.325485 328.867310,154.112228 
M325.709198,160.765869 
	C299.202362,138.465881 268.285156,130.204102 234.470840,134.390366 
	C203.311813,138.247925 177.757690,153.353622 157.904816,177.881485 
	C128.853180,213.774246 124.209251,267.074951 146.714752,307.382812 
	C179.201172,365.566803 250.126083,385.753784 308.308289,353.376282 
	C379.334869,313.851105 388.772644,212.953247 325.709198,160.765869 
z"/>
<path fill="#151515" opacity="1.000000" stroke="none" 
	d="
M291.240814,84.210052 
	C292.663696,83.393822 293.979797,82.991211 296.419067,82.245041 
	C294.067413,86.397514 296.468353,91.812180 289.732941,92.043678 
	C290.242615,89.344490 290.688354,86.984093 291.240814,84.210052 
z"/>
<path fill="#181818" opacity="1.000000" stroke="none" 
	d="
M191.255859,97.154129 
	C190.270844,97.406593 189.089249,97.558937 188.977386,97.280899 
	C187.941681,94.706543 187.090485,92.057953 186.100754,89.184364 
	C187.279663,88.664429 188.297607,88.215492 190.464828,87.259682 
	C190.866562,90.793762 191.211029,93.824074 191.255859,97.154129 
z"/>
<path fill="#121212" opacity="1.000000" stroke="none" 
	d="
M384.388611,136.392883 
	C382.411652,139.175110 380.370270,139.555176 377.796143,137.431152 
	C379.905273,135.165878 382.009491,132.905884 384.038635,130.726547 
	C388.987946,132.259781 386.428772,134.217026 384.388611,136.392883 
z"/>
<path fill="#151515" opacity="1.000000" stroke="none" 
	d="
M217.510559,406.509827 
	C217.301422,410.055084 218.508148,414.283630 212.874069,414.812500 
	C214.811508,412.169250 210.689697,406.848267 217.510559,406.509827 
z"/>
<path fill="#1B1B1B" opacity="1.000000" stroke="none" 
	d="
M304.047150,408.647217 
	C303.226776,409.981049 302.423645,410.928101 301.375549,412.164032 
	C300.511536,409.725769 299.571838,407.770691 299.189117,405.712036 
	C298.984985,404.614197 299.743347,403.337402 300.067322,402.141388 
	C301.026245,402.927643 302.237457,403.551788 302.875275,404.544403 
	C303.554443,405.601349 303.690948,407.006989 304.047150,408.647217 
z"/>
<path fill="#1D1D1D" opacity="1.000000" stroke="none" 
	d="
M373.163269,357.936584 
	C374.558228,360.013367 375.661133,361.847748 376.764069,363.682129 
	C376.255920,364.093445 375.747742,364.504730 375.239594,364.916046 
	C372.924805,362.937836 370.610046,360.959656 368.250732,358.943390 
	C369.462067,356.398407 370.715668,355.168915 373.163269,357.936584 
z"/>
<path fill="#191919" opacity="1.000000" stroke="none" 
	d="
M323.434692,92.918945 
	C321.655090,96.270126 322.359650,101.391724 316.144379,100.594543 
	C317.084381,98.133179 318.078430,95.925003 318.770142,93.625877 
	C319.785980,90.249344 321.354462,90.133232 323.434692,92.918945 
z"/>
<path fill="#111111" opacity="1.000000" stroke="none" 
	d="
M322.396606,393.169128 
	C325.296661,396.003174 328.656830,398.788361 324.589050,403.548676 
	C323.208435,400.792297 321.882904,398.533539 320.985382,396.115906 
	C320.719086,395.398560 321.656738,394.234253 322.396606,393.169128 
z"/>
<path fill="#FEFEFE" opacity="1.000000" stroke="none" 
	d="
M325.997559,160.973129 
	C388.772644,212.953247 379.334869,313.851105 308.308289,353.376282 
	C250.126083,385.753784 179.201172,365.566803 146.714752,307.382812 
	C124.209251,267.074951 128.853180,213.774246 157.904816,177.881485 
	C177.757690,153.353622 203.311813,138.247925 234.470840,134.390366 
	C268.285156,130.204102 299.202362,138.465881 325.997559,160.973129 
M233.009430,217.918518 
	C230.584229,224.849091 225.094025,227.310577 218.363083,228.017059 
	C215.564529,228.310806 212.053146,227.773804 210.119308,229.253113 
	C203.741226,234.132019 198.578827,232.604691 193.440506,227.634506 
	C192.983490,227.192459 192.290268,226.969559 191.676620,226.718491 
	C186.915939,224.770508 177.230499,226.887924 176.456238,230.487198 
	C175.286407,235.925522 171.545013,236.526749 167.176956,236.793716 
	C164.233505,236.973618 160.537247,235.691559 159.957443,240.658615 
	C159.602386,243.700302 157.711594,246.930527 158.373978,249.616547 
	C158.998138,252.147461 161.970062,254.171875 164.076675,256.249207 
	C168.125458,260.241760 168.153580,264.438019 163.909958,268.243835 
	C161.930206,270.019379 159.644928,271.483002 157.818741,273.394318 
	C154.902679,276.446289 155.042892,280.169586 158.688583,282.254211 
	C163.102448,284.778107 164.016953,288.063049 163.210632,292.660156 
	C162.755264,295.256378 162.791306,297.996643 163.019867,300.636200 
	C163.193756,302.644287 164.019775,304.595886 164.555634,306.572632 
	C166.584854,305.738739 169.240433,305.450104 170.528244,303.970795 
	C174.729568,299.144562 178.431854,293.883881 182.426178,288.659485 
	C186.514999,290.326202 191.797516,291.253510 193.327377,297.302429 
	C193.587479,298.330811 195.359634,298.913879 196.276733,299.855194 
	C197.378647,300.986176 198.594803,302.143707 199.266907,303.529602 
	C201.252502,307.624023 202.330444,307.649994 205.566910,304.096893 
	C206.822372,302.718597 208.999680,301.119476 210.591156,301.278717 
	C221.459305,302.366211 222.895462,301.578064 225.793686,290.994873 
	C227.344757,292.108887 228.820084,293.083221 230.199127,294.178741 
	C232.335571,295.875946 234.261581,295.946991 235.384689,293.233215 
	C237.263718,288.692810 239.802856,289.815552 243.348511,291.364410 
	C245.912888,292.484558 250.765991,293.261017 251.915436,291.909241 
	C258.149109,284.578461 266.859680,288.061371 274.453583,285.055267 
	C274.663452,291.814880 278.981384,293.752167 283.958466,294.858826 
	C289.684601,296.132019 294.073151,298.970978 296.303406,304.640259 
	C297.616577,307.978333 300.349304,308.668732 303.241577,307.360443 
	C307.081940,305.623352 309.242798,306.960419 311.627228,310.018219 
	C313.150970,311.972260 315.865021,312.998108 318.045441,314.440063 
	C319.052460,312.009735 320.692444,309.635590 320.914520,307.135529 
	C321.228546,303.599487 322.316223,301.271667 325.608063,299.660126 
	C332.412537,296.329010 332.996338,294.723022 330.386902,287.448395 
	C328.933044,283.395325 327.886322,279.509552 330.685699,275.576172 
	C331.643066,274.230957 332.371277,272.697723 333.044373,271.179565 
	C335.507568,265.623596 332.549530,258.825867 326.785309,257.001221 
	C322.770233,255.730240 321.287720,252.668045 320.078064,249.007080 
	C319.111877,246.083069 317.282349,243.454987 316.138885,240.575317 
	C315.308807,238.484772 314.284485,236.105225 314.564606,234.017990 
	C315.109497,229.958267 315.683044,226.211227 312.975525,222.592163 
	C310.679932,219.523712 308.599579,219.068619 305.612183,221.723846 
	C300.140564,226.587021 299.713867,229.247757 301.984772,236.502655 
	C302.738495,238.910477 301.679962,242.168060 300.591583,244.662643 
	C300.333588,245.253998 296.612396,244.379379 294.494232,244.102661 
	C291.912231,243.765335 289.214111,242.669266 286.794159,243.121445 
	C283.069550,243.817398 279.886719,244.118057 277.437347,240.678619 
	C275.072601,237.357956 277.357147,234.845718 278.687897,231.985687 
	C279.378754,230.500961 279.540497,227.297745 278.848145,226.930222 
	C277.088806,225.996368 274.538147,225.609131 272.632385,226.152939 
	C270.604462,226.731598 268.953644,228.631927 267.068817,230.005753 
	C262.726471,221.319138 259.729492,213.352005 267.284454,205.257324 
	C269.961365,202.389175 269.352020,198.732391 266.628967,195.736130 
	C265.174652,194.135880 263.746948,192.496475 262.160645,191.033737 
	C256.087372,185.433517 252.375870,185.919083 247.461868,192.648453 
	C244.525131,196.670120 241.747391,200.915848 238.221100,204.369537 
	C234.490677,208.023178 232.210129,211.790756 233.009430,217.918518 
M262.591858,168.334549 
	C254.017120,170.859085 253.095154,163.824600 251.112991,157.500626 
	C249.412445,161.799179 249.011475,165.950180 246.770416,167.596786 
	C244.521088,169.249481 240.437607,168.405869 237.157944,168.656281 
	C243.547104,172.345016 247.280594,176.502594 242.297943,184.279327 
	C245.519043,182.965637 247.944656,180.298996 250.398346,180.272903 
	C253.078293,180.244400 255.784225,182.659973 258.617249,184.079590 
	C258.818665,183.274384 259.186005,182.669662 259.016052,182.357162 
	C255.865967,176.565216 258.098969,172.836548 263.490234,170.179657 
	C263.690613,170.080917 263.398773,168.983383 262.591858,168.334549 
M345.749939,308.103546 
	C345.599823,307.029846 345.763611,305.762207 345.242035,304.918030 
	C343.523987,302.137329 335.002594,298.359406 332.455139,300.094788 
	C329.728363,301.952301 327.809875,305.348328 326.296783,308.443481 
	C325.771881,309.517212 327.064728,312.270447 328.315674,313.257996 
	C330.981018,315.362091 333.935760,315.372955 336.977997,313.118103 
	C339.464874,311.274841 342.450348,310.104279 345.749939,308.103546 
z"/>
<path fill="#A5D563" opacity="1.000000" stroke="none" 
	d="
M233.052048,217.500916 
	C232.210129,211.790756 234.490677,208.023178 238.221100,204.369537 
	C241.747391,200.915848 244.525131,196.670120 247.461868,192.648453 
	C252.375870,185.919083 256.087372,185.433517 262.160645,191.033737 
	C263.746948,192.496475 265.174652,194.135880 266.628967,195.736130 
	C269.352020,198.732391 269.961365,202.389175 267.284454,205.257324 
	C259.729492,213.352005 262.726471,221.319138 267.068817,230.005753 
	C268.953644,228.631927 270.604462,226.731598 272.632385,226.152939 
	C274.538147,225.609131 277.088806,225.996368 278.848145,226.930222 
	C279.540497,227.297745 279.378754,230.500961 278.687897,231.985687 
	C277.357147,234.845718 275.072601,237.357956 277.437347,240.678619 
	C279.886719,244.118057 283.069550,243.817398 286.794159,243.121445 
	C289.214111,242.669266 291.912231,243.765335 294.494232,244.102661 
	C296.612396,244.379379 300.333588,245.253998 300.591583,244.662643 
	C301.679962,242.168060 302.738495,238.910477 301.984772,236.502655 
	C299.713867,229.247757 300.140564,226.587021 305.612183,221.723846 
	C308.599579,219.068619 310.679932,219.523712 312.975525,222.592163 
	C315.683044,226.211227 315.109497,229.958267 314.564606,234.017990 
	C314.284485,236.105225 315.308807,238.484772 316.138885,240.575317 
	C317.282349,243.454987 319.111877,246.083069 320.078064,249.007080 
	C321.287720,252.668045 322.770233,255.730240 326.785309,257.001221 
	C332.549530,258.825867 335.507568,265.623596 333.044373,271.179565 
	C332.371277,272.697723 331.643066,274.230957 330.685699,275.576172 
	C327.886322,279.509552 328.933044,283.395325 330.386902,287.448395 
	C332.996338,294.723022 332.412537,296.329010 325.608063,299.660126 
	C322.316223,301.271667 321.228546,303.599487 320.914520,307.135529 
	C320.692444,309.635590 319.052460,312.009735 318.045441,314.440063 
	C315.865021,312.998108 313.150970,311.972260 311.627228,310.018219 
	C309.242798,306.960419 307.081940,305.623352 303.241577,307.360443 
	C300.349304,308.668732 297.616577,307.978333 296.303406,304.640259 
	C294.073151,298.970978 289.684601,296.132019 283.958466,294.858826 
	C278.981384,293.752167 274.663452,291.814880 274.453583,285.055267 
	C266.859680,288.061371 258.149109,284.578461 251.915436,291.909241 
	C250.765991,293.261017 245.912888,292.484558 243.348511,291.364410 
	C239.802856,289.815552 237.263718,288.692810 235.384689,293.233215 
	C234.261581,295.946991 232.335571,295.875946 230.199127,294.178741 
	C228.820084,293.083221 227.344757,292.108887 225.793686,290.994873 
	C222.895462,301.578064 221.459305,302.366211 210.591156,301.278717 
	C208.999680,301.119476 206.822372,302.718597 205.566910,304.096893 
	C202.330444,307.649994 201.252502,307.624023 199.266907,303.529602 
	C198.594803,302.143707 197.378647,300.986176 196.276733,299.855194 
	C195.359634,298.913879 193.587479,298.330811 193.327377,297.302429 
	C191.797516,291.253510 186.514999,290.326202 182.426178,288.659485 
	C178.431854,293.883881 174.729568,299.144562 170.528244,303.970795 
	C169.240433,305.450104 166.584854,305.738739 164.555634,306.572632 
	C164.019775,304.595886 163.193756,302.644287 163.019867,300.636200 
	C162.791306,297.996643 162.755264,295.256378 163.210632,292.660156 
	C164.016953,288.063049 163.102448,284.778107 158.688583,282.254211 
	C155.042892,280.169586 154.902679,276.446289 157.818741,273.394318 
	C159.644928,271.483002 161.930206,270.019379 163.909958,268.243835 
	C168.153580,264.438019 168.125458,260.241760 164.076675,256.249207 
	C161.970062,254.171875 158.998138,252.147461 158.373978,249.616547 
	C157.711594,246.930527 159.602386,243.700302 159.957443,240.658615 
	C160.537247,235.691559 164.233505,236.973618 167.176956,236.793716 
	C171.545013,236.526749 175.286407,235.925522 176.456238,230.487198 
	C177.230499,226.887924 186.915939,224.770508 191.676620,226.718491 
	C192.290268,226.969559 192.983490,227.192459 193.440506,227.634506 
	C198.578827,232.604691 203.741226,234.132019 210.119308,229.253113 
	C212.053146,227.773804 215.564529,228.310806 218.363083,228.017059 
	C225.094025,227.310577 230.584229,224.849091 233.052048,217.500916 
z"/>
<path fill="#B49650" opacity="1.000000" stroke="none" 
	d="
M262.964111,168.342926 
	C263.398773,168.983383 263.690613,170.080917 263.490234,170.179657 
	C258.098969,172.836548 255.865967,176.565216 259.016052,182.357162 
	C259.186005,182.669662 258.818665,183.274384 258.617249,184.079590 
	C255.784225,182.659973 253.078293,180.244400 250.398346,180.272903 
	C247.944656,180.298996 245.519043,182.965637 242.297943,184.279327 
	C247.280594,176.502594 243.547104,172.345016 237.157944,168.656281 
	C240.437607,168.405869 244.521088,169.249481 246.770416,167.596786 
	C249.011475,165.950180 249.412445,161.799179 251.112991,157.500626 
	C253.095154,163.824600 254.017120,170.859085 262.964111,168.342926 
z"/>
<path fill="#A6D865" opacity="1.000000" stroke="none" 
	d="
M345.482361,308.369507 
	C342.450348,310.104279 339.464874,311.274841 336.977997,313.118103 
	C333.935760,315.372955 330.981018,315.362091 328.315674,313.257996 
	C327.064728,312.270447 325.771881,309.517212 326.296783,308.443481 
	C327.809875,305.348328 329.728363,301.952301 332.455139,300.094788 
	C335.002594,298.359406 343.523987,302.137329 345.242035,304.918030 
	C345.763611,305.762207 345.599823,307.029846 345.482361,308.369507 
z"/>
</svg>